<?xml version="1.0" standalone="no"?><!DOCTYPE svg PUBLIC "-//W3C//DTD SVG 1.1//EN" "http://www.w3.org/Graphics/SVG/1.1/DTD/svg11.dtd"><svg t="1648282666417" class="icon" viewBox="0 0 1024 1024" version="1.1" xmlns="http://www.w3.org/2000/svg" p-id="2279" xmlns:xlink="http://www.w3.org/1999/xlink" width="200" height="200"><defs><style type="text/css">@font-face { font-family: element-icons; src: url("chrome-extension://bbakhnmfkjenfbhjdddipcefnhpikjbj/fonts/element-icons.woff") format("woff"), url("chrome-extension://bbakhnmfkjenfbhjdddipcefnhpikjbj/fonts/element-icons.ttf ") format("truetype"); }
</style></defs><path d="M987.281589 706.50098c0 45.447431-37.184262 82.631694-82.631693 82.631693H119.338938c-45.447431 0-82.631694-37.184262-82.631693-82.631693V103.289617C36.707245 57.842185 73.891507 20.657923 119.338938 20.657923h785.310958c45.447431 0 82.631694 37.184262 82.631693 82.631694v603.211363z" fill="#F0F0FF" p-id="2280"></path><path d="M566.03761 15.262074H127.932634c-45.447431 0-82.631694 37.184262-82.631693 82.631693V535.99048L566.03761 15.262074z" fill="#FFFFFF" opacity=".9" p-id="2281"></path><path d="M966.623666 706.50098c0 34.172337-27.801433 61.97377-61.97377 61.97377H119.338938c-34.172337 0-61.97377-27.801433-61.97377-61.97377V103.289617c0-34.172337 27.801433-61.97377 61.97377-61.97377h785.310958c34.172337 0 61.97377 27.801433 61.97377 61.97377v603.211363z m41.315847-603.211363c0-56.953895-46.335722-103.289617-103.289617-103.289617H119.338938C62.385044 0 16.049321 46.335722 16.049321 103.289617v603.211363c0 56.953895 46.335722 103.289617 103.289617 103.289617H904.649896c56.953895 0 103.289617-46.335722 103.289617-103.289617V103.289617z" fill="#6E6E96" p-id="2282"></path><path d="M145.632343 249.741899s112.602209 27.582459 112.602209-112.602209H768.82405s-27.582459 112.602209 112.602208 112.602209l-2.202134 312.434565s-112.602209-27.574196-112.602209 112.610472H258.234552s27.578328-112.610472-112.602209-112.610472V249.741899z" fill="#D6D6E3" p-id="2283"></path><path d="M140.715757 269.809006c2.185608 0.532974 53.962627 12.737676 94.357131-18.959842 29.073961-22.814611 43.815456-61.068953 43.815456-113.705342a20.657923 20.657923 0 0 1-20.657924 20.657923h510.585366a20.678581 20.678581 0 0 1-20.071238-25.570377c-0.532974 2.185608-12.733544 53.958496 18.968105 94.35713 22.810479 29.073961 61.064822 43.811324 113.705342 43.811324a20.662055 20.662055 0 0 1-20.657923-20.80666l-2.202135 312.438696a20.670318 20.670318 0 0 1 25.582773-19.918369c-2.177345-0.537106-53.962627-12.737676-94.357131 18.959842-29.073961 22.810479-43.811324 61.073085-43.811324 113.705342 0-11.415568 9.238223-20.657923 20.657923-20.657924H258.234552a20.645529 20.645529 0 0 1 20.067107 25.566246c0.532974-2.177345 12.737676-53.962627-18.959842-94.361262-22.810479-29.073961-61.068953-43.811324-113.705342-43.811324a20.616608 20.616608 0 0 1 14.609283 6.056903 20.645529 20.645529 0 0 1 6.04864 14.60102v-312.430433a20.653792 20.653792 0 0 1-25.578641 20.067107z m4.916586 313.025381c39.299633 0 66.621803 9.424145 81.202165 28.008013 19.120974 24.363955 11.4197 58.685029 11.337069 59.023819a20.657923 20.657923 0 0 0 20.067107 25.566246h508.379099a20.653792 20.653792 0 0 0 20.657924-20.657924c0-39.307897 9.415881-66.621803 27.999749-81.198034 24.359823-19.125105 58.685029-11.432095 59.023819-11.337068a20.678581 20.678581 0 0 0 17.612945-3.768005 20.633134 20.633134 0 0 0 7.965696-16.150365l2.202134-312.438696a20.67445 20.67445 0 0 0-20.657923-20.806661c-39.307897 0-66.621803-9.420013-81.202165-28.00388-19.125105-24.368086-11.4197-58.685029-11.332937-59.023819a20.657923 20.657923 0 0 0-20.067107-25.574509H258.234552a20.657923 20.657923 0 0 0-20.657923 20.657923c0 39.303765-9.424145 66.621803-28.003881 81.202165-24.368086 19.120974-58.68916 11.4197-59.027951 11.337069a20.657923 20.657923 0 0 0-25.574509 20.071238v312.434565a20.657923 20.657923 0 0 0 20.662055 20.657923z" fill="#6E6E96" p-id="2284"></path><path d="M140.715757 309.05906c2.185608 0.532974 53.958496 12.737676 94.357131-18.959842 29.073961-22.810479 43.815456-61.068953 43.815456-113.705342l-20.657924 20.657924h510.585366l-20.058843-25.566246c-0.541238 2.185608-12.741807 53.958496 18.968105 94.357131 22.810479 29.073961 61.064822 43.811324 113.705342 43.811323v-41.315846c-39.307897 0-66.621803-9.420013-81.202165-28.003881-19.125105-24.368086-11.427963-58.685029-11.332937-59.023819l6.263482-25.570378H237.576629v20.657924c0 39.138502-9.345645 66.390434-27.772513 81.016244-24.388744 19.364737-59.019687 11.5767-59.36674 11.494068l-9.721619 40.15074z" fill="#6E6E96" opacity=".2" p-id="2285"></path><path d="M379.785773 243.763496h268.553004v41.315847h-268.553004z" fill="#6E6E96" p-id="2286"></path><path d="M295.088287 349.118905h479.263823v41.315847h-479.263823zM295.088287 464.803276h268.553004v41.315847h-268.553004z" fill="#6E6E96" opacity=".39" p-id="2287"></path><path d="M590.091696 697.299941l-139.341824 222.436256 108.82594-25.231588 25.248114 108.82594 139.32943-222.436255" fill="#FF9999" p-id="2288"></path><path d="M572.590304 686.338847l-139.345957 222.432124a20.657923 20.657923 0 0 0 22.174215 31.094306l108.825941-25.223324a20.666187 20.666187 0 0 1-24.789508-15.456258l25.23985 108.830072c1.888134 8.126827 8.482143 14.324204 16.71226 15.704153s16.485023-2.326082 20.914082-9.399355l139.345957-222.436256a20.670318 20.670318 0 0 0-35.023444-21.942846l-139.337693 222.436256a20.645529 20.645529 0 0 1 20.914082-9.399356 20.666187 20.666187 0 0 1 16.71226 15.708285l-25.231588-108.82594a20.670318 20.670318 0 0 0-24.789508-15.456258l-108.830072 25.231587a20.666187 20.666187 0 0 1 22.174215 31.094307l139.341825-222.427993a20.666187 20.666187 0 0 0-6.540299-28.479013 20.629002 20.629002 0 0 0-28.466618 6.515509z" fill="#6E6E96" p-id="2289"></path><path d="M543.123842 760.542107c1.805503 3.040846 45.290431 74.810604 143.246172 90.820495l4.429059-27.11559c-85.420513-13.956493-123.666593-77.062317-124.034304-77.706845l-23.640927 14.00194z" fill="#6E6E96" opacity=".2" p-id="2290"></path><path d="M626.338089 780.894294l139.341825 222.436255 25.235719-108.82594 108.830072 25.231588-139.32943-222.436256" fill="#A8D6F7" p-id="2291"></path><path d="M608.836696 791.859519l139.337693 222.436256a20.666187 20.666187 0 0 0 37.634605-6.304798l25.239851-108.830072a20.67445 20.67445 0 0 1-24.797771 15.456258l108.82594 25.223325a20.657923 20.657923 0 1 0 22.174215-31.094307L777.913536 686.32232a20.657923 20.657923 0 1 0-35.019312 21.934583l139.341825 222.432125a20.67445 20.67445 0 0 1 0.685843-22.963348 20.686844 20.686844 0 0 1 21.48424-8.139222l-108.834203-25.223324a20.670318 20.670318 0 0 0-24.789508 15.456258l-25.231588 108.82594a20.670318 20.670318 0 0 1 37.634605-6.308929l-139.345956-222.436256a20.657923 20.657923 0 1 0-35.002786 21.959372z" fill="#6E6E96" p-id="2292"></path><path d="M810.131633 760.542107c-1.813766 3.040846-45.294563 74.810604-143.250304 90.820495l-4.429058-27.11559c85.424645-13.956493 123.658329-77.062317 124.034303-77.706845l23.645059 14.00194z" fill="#6E6E96" opacity=".2" p-id="2293"></path><path d="M588.662168 764.884403a41.319978 41.319978 0 0 1-40.212713-50.810228l17.584024-74.467683-62.341481-56.00363a41.311715 41.311715 0 0 1 27.61138-72.054837h69.856834l34.267363-78.917399a41.32411 41.32411 0 0 1 37.444552-24.859745h0.454474a41.315847 41.315847 0 0 1 37.523052 24.033428l36.725657 79.743716h70.513755a41.315847 41.315847 0 0 1 25.400983 73.901655l-59.168424 46.129143 20.484397 78.871952A41.315847 41.315847 0 0 1 743.24954 756.079996l-68.5182-41.927321-62.531534 43.365113a41.22082 41.22082 0 0 1-23.537638 7.366615z m84.668565-141.349775c7.45751 0 14.927415 2.016213 21.56274 6.073429l4.218348 2.586372-1.59066-6.118876a41.32411 41.32411 0 0 1 7.060878-35.345707 41.295189 41.295189 0 0 1-20.992581-20.579424l-9.155592-19.881185-8.275564 19.054868a41.32411 41.32411 0 0 1-28.301355 23.727691l1.627844 1.462581a41.315847 41.315847 0 0 1 13.547466 34.345864 41.357163 41.357163 0 0 1 20.298476-5.325613z" p-id="2294"></path><path d="M896.093384 587.581578c0 119.654824-97.005477 216.643774-216.656169 216.643774-119.642429 0-216.652037-96.997213-216.652037-216.643774 0-119.663087 97.009608-216.652037 216.652037-216.652037 119.658955-0.004132 216.656169 96.984819 216.656169 216.652037z" fill="#FFD28F" p-id="2295"></path><path d="M510.455402 611.25969c0-105.756173 85.730382-191.465897 191.461765-191.465897 46.310933 0 98.877085 16.443707 131.991736 43.815455-35.11847-42.514006-98.34411-69.604807-157.776956-69.604807-105.731383 0-191.457634 85.709724-191.457634 191.470029 0 59.428714 27.082538 119.262323 69.580018 154.37253-27.359354-33.102256-43.798929-82.297035-43.798929-128.58731z" fill="#FFFFFF" opacity=".75" p-id="2296"></path><path d="M705.123277 358.54305c83.181194 23.500454 144.155121 99.926507 144.155121 190.63958 0 109.416757-88.717518 198.130143-198.146669 198.130143-109.412625 0-198.142538-88.721649-198.142538-198.130143 0-20.567029 3.135873-40.394503 8.953144-59.044477a215.986852 215.986852 0 0 0-15.683496 80.92535c0 119.642429 97.009608 216.652037 216.652037 216.652037 119.663087 0 216.656169-97.001345 216.656169-216.652037 0-105.22733-74.996525-192.878899-174.443768-212.520453z" fill="#E8B76D" opacity=".76" p-id="2297"></path><path d="M788.928341 548.174523h-71.100441l-35.044101-76.099658-33.052678 76.099658h-71.096309l59.081661 53.066074-17.013866 72.104416 62.081192-43.059376 67.088672 41.055557-20.029923-77.103633z" fill="#F07D7D" p-id="2298"></path><path d="M875.435461 587.581578c0 108.065729-87.924254 195.985851-195.998246 195.985851-108.065729 0-195.994114-87.907727-195.994114-195.985851 0-108.073992 87.928385-195.994114 195.994114-195.994114 52.355441 0 101.579141 20.38937 138.594008 57.408369 37.018999 37.010736 57.404238 86.230304 57.404238 138.585745z m-195.998246-237.314092c-130.85555 0-237.309961 106.462674-237.309961 237.309961s106.458542 237.305829 237.309961 237.305829 237.314092-106.458542 237.314092-237.305829c0-63.390904-24.694482-122.993144-69.505649-167.808444-44.819431-44.819431-104.413408-69.501517-167.808443-69.501517z" fill="#6E6E96" p-id="2299"></path></svg>